<?xml version="1.0" standalone="no"?>
<!DOCTYPE svg PUBLIC "-//W3C//DTD SVG 20010904//EN"
 "http://www.w3.org/TR/2001/REC-SVG-20010904/DTD/svg10.dtd">
<svg version="1.0" xmlns="http://www.w3.org/2000/svg"
 width="586.000000pt" height="222.000000pt" viewBox="0 0 586.000000 222.000000"
 preserveAspectRatio="xMidYMid meet">

<g transform="translate(0.000000,222.000000) scale(0.100000,-0.100000)"
fill="#000000" stroke="none">
<path d="M1630 1125 c0 -567 2 -645 15 -645 13 0 15 78 15 645 0 567 -2 645
-15 645 -13 0 -15 -78 -15 -645z"/>
<path d="M751 1457 c-16 -24 -39 -73 -51 -108 -12 -35 -33 -81 -47 -102 -14
-20 -23 -40 -20 -43 8 -9 65 95 78 141 11 43 66 135 79 135 5 0 47 -23 94 -51
48 -29 147 -78 221 -110 74 -32 164 -79 200 -104 l65 -47 -30 -43 c-31 -46
-76 -153 -67 -162 5 -5 37 61 37 76 0 4 16 33 35 65 19 32 35 64 35 70 -1 20
-152 114 -245 152 -111 45 -213 96 -283 140 -29 19 -57 34 -62 34 -5 0 -22
-19 -39 -43z"/>
<path d="M1850 1205 l0 -235 110 0 c122 0 154 10 188 58 35 48 33 127 -4 171
-25 30 -26 32 -10 65 20 42 20 69 1 110 -26 54 -59 66 -179 66 l-106 0 0 -235z
m224 143 c6 -18 6 -38 0 -55 -9 -27 -13 -28 -82 -31 l-72 -3 0 61 0 61 72 -3
c69 -3 73 -4 82 -30z m-2 -168 c32 -24 40 -65 23 -107 -18 -42 -42 -53 -114
-53 l-61 0 0 90 0 90 64 0 c48 0 69 -5 88 -20z"/>
<path d="M2870 1349 c0 -83 -2 -90 -17 -83 -38 16 -108 15 -142 -3 -50 -26
-74 -64 -79 -126 -6 -72 17 -120 73 -152 48 -29 81 -31 130 -11 19 8 35 11 35
5 0 -5 16 -9 35 -9 l35 0 0 235 0 235 -35 0 -35 0 0 -91z m-9 -151 c59 -78 3
-201 -83 -183 -43 9 -65 29 -78 71 -15 44 1 96 38 125 35 27 98 21 123 -13z"/>
<path d="M4520 1415 c-18 -22 -8 -50 19 -50 32 0 49 28 32 49 -17 20 -35 20
-51 1z"/>
<path d="M3790 1331 c0 -44 -3 -51 -20 -51 -15 0 -20 -7 -20 -25 0 -18 5 -25
19 -25 17 0 19 -10 23 -106 3 -105 3 -106 36 -135 27 -24 41 -29 70 -27 32 3
37 7 40 30 3 22 0 27 -12 22 -9 -3 -27 1 -41 10 -24 16 -25 21 -25 111 l0 95
40 0 c36 0 40 3 40 25 0 22 -4 25 -39 25 l-40 0 -3 48 c-3 45 -4 47 -35 50
l-33 3 0 -50z"/>
<path d="M2262 1158 c4 -132 11 -154 59 -182 39 -23 90 -20 133 9 34 23 36 23
36 5 0 -16 7 -20 30 -20 l30 0 0 155 0 155 -30 0 -30 0 0 -82 c0 -146 -29
-197 -104 -182 -20 3 -41 15 -46 25 -6 10 -10 67 -10 128 l0 111 -36 0 -36 0
4 -122z"/>
<path d="M3089 1259 c-90 -53 -102 -181 -23 -256 44 -41 94 -51 153 -30 l43
15 -6 -39 c-4 -22 -12 -48 -18 -59 -27 -43 -94 -56 -129 -24 -14 12 -22 13
-39 4 -26 -14 -22 -27 14 -54 56 -43 161 -19 208 46 22 31 23 42 26 226 l3
192 -30 0 c-16 0 -31 -5 -33 -11 -3 -9 -9 -9 -25 0 -34 18 -104 13 -144 -10z
m152 -58 c48 -49 36 -146 -22 -177 -60 -31 -139 21 -139 92 0 100 96 150 161
85z"/>
<path d="M3469 1259 c-50 -29 -70 -68 -70 -135 0 -68 23 -111 77 -141 48 -28
105 -29 162 -3 47 21 51 29 22 55 -18 17 -22 17 -37 2 -29 -25 -67 -30 -107
-13 -30 12 -56 46 -56 72 0 2 57 4 126 4 l127 0 -7 41 c-15 93 -65 139 -151
139 -32 0 -63 -8 -86 -21z m146 -54 c46 -45 35 -55 -64 -55 -85 0 -89 1 -84
20 15 58 105 79 148 35z"/>
<path d="M3994 1248 c7 -18 35 -88 60 -155 41 -105 51 -123 69 -123 19 0 27
15 56 94 19 52 38 93 42 91 3 -3 22 -45 40 -95 28 -76 37 -90 56 -90 17 0 26
11 41 53 11 28 36 94 56 145 20 52 36 98 36 103 0 5 -13 9 -29 9 -28 0 -30 -3
-67 -112 l-37 -113 -37 110 c-33 100 -39 110 -61 110 -22 0 -28 -11 -60 -104
-20 -58 -38 -100 -41 -95 -3 5 -20 53 -37 107 l-33 97 -33 0 -34 0 13 -32z"/>
<path d="M4510 1125 l0 -155 30 0 30 0 0 155 0 155 -30 0 -30 0 0 -155z"/>
<path d="M4707 1265 c-80 -46 -46 -143 59 -166 62 -14 83 -32 68 -57 -16 -24
-57 -31 -100 -16 -35 12 -41 12 -58 -5 -18 -19 -18 -20 22 -40 90 -46 192 -5
192 76 0 46 -36 77 -108 95 -39 10 -58 19 -60 31 -9 43 44 60 97 32 26 -13 30
-13 45 4 15 16 15 19 -4 36 -28 25 -116 31 -153 10z"/>
<path d="M5022 1261 c-47 -30 -72 -77 -72 -136 0 -67 26 -114 80 -142 53 -28
109 -29 160 -3 45 23 48 30 20 55 -18 16 -20 16 -46 -4 -30 -24 -48 -26 -93
-10 -30 11 -67 60 -54 73 4 3 60 6 125 6 116 0 118 0 118 23 0 44 -20 94 -50
122 -26 25 -40 30 -93 33 -49 2 -69 -1 -95 -17z m143 -56 c46 -45 35 -55 -60
-55 -77 0 -85 2 -85 19 0 28 47 61 87 61 23 0 42 -8 58 -25z"/>
<path d="M1003 1252 c-33 -5 -63 -49 -63 -92 0 -73 100 -120 150 -70 69 69 11
177 -87 162z m40 -29 c11 -10 17 -12 13 -5 -4 6 -4 12 1 12 27 -1 54 -47 46
-78 -3 -12 -9 -20 -13 -17 -4 3 -7 -3 -6 -13 0 -10 -6 -16 -16 -16 -10 1 -16
-2 -13 -6 10 -16 -13 -20 -25 -4 -11 12 -15 12 -22 2 -6 -10 -14 -6 -33 15
-26 30 -35 64 -12 51 9 -6 9 -4 -1 8 -10 13 -9 20 7 39 16 20 21 22 35 10 14
-12 16 -12 10 3 -8 21 4 20 29 -1z"/>
<path d="M712 1183 c-162 -3 -163 -4 -172 -28 -5 -14 -8 -102 -6 -196 l4 -172
171 -3 c95 -2 176 -6 181 -9 5 -3 41 -2 82 2 68 8 63 8 -78 13 -133 4 -155 7
-175 25 -18 15 -20 15 -10 3 22 -29 -8 -22 -43 10 -21 18 -24 20 -12 4 23 -26
14 -42 -11 -20 -10 8 -25 18 -33 22 -8 4 -4 -2 10 -13 22 -18 23 -21 6 -21
-11 0 -29 8 -40 17 -17 14 -18 15 -8 2 10 -14 9 -17 -5 -21 -17 -4 -18 7 -21
146 -1 83 0 168 4 189 l6 37 174 0 c109 0 174 4 174 10 0 6 -8 9 -17 8 -10 -1
-91 -4 -181 -5z"/>
<path d="M1140 1181 c0 -6 16 -7 35 -4 l35 6 0 -97 c0 -53 4 -96 8 -96 5 0 9
45 9 100 l0 100 -44 0 c-23 0 -43 -4 -43 -9z"/>
<path d="M860 1092 c0 -5 -11 -14 -24 -20 -38 -17 -44 -52 -14 -76 17 -14 27
-35 31 -63 6 -47 2 -50 -31 -27 -20 14 -22 14 -22 0 0 -9 12 -19 28 -22 15 -4
30 -12 35 -18 5 -8 9 -8 15 0 4 6 15 13 25 17 28 10 23 71 -8 95 -17 14 -25
30 -25 51 0 34 14 41 28 15 5 -10 12 -12 15 -7 4 6 -7 22 -23 37 -17 14 -30
22 -30 18z m-4 -48 c-3 -9 -6 -22 -6 -30 0 -8 -6 -11 -15 -8 -15 6 -20 35 -8
47 13 14 35 7 29 -9z m49 -105 c8 -23 -1 -39 -21 -39 -9 0 -14 11 -14 35 0 26
4 33 15 29 8 -3 17 -14 20 -25z"/>
<path d="M1120 972 c-50 -25 -83 -78 -76 -122 6 -41 73 -110 107 -110 65 0
129 65 129 132 0 41 -36 93 -73 103 -12 4 -29 8 -37 11 -8 2 -31 -4 -50 -14z
m51 -19 c-12 14 -11 17 2 17 9 0 23 -10 33 -22 15 -20 16 -21 10 -3 -4 14 2
11 24 -13 30 -33 41 -60 18 -46 -9 6 -9 3 0 -9 18 -22 6 -42 -15 -25 -15 12
-15 11 -2 -9 17 -28 4 -43 -16 -17 -8 10 -15 14 -15 8 0 -5 5 -15 12 -22 18
-18 1 -27 -19 -11 -16 13 -17 12 -4 -4 8 -9 11 -21 7 -25 -4 -4 -16 4 -27 17
-11 13 -22 22 -24 19 -3 -3 1 -11 10 -18 8 -7 15 -16 15 -21 0 -15 -22 -10
-37 9 -8 9 -12 11 -8 5 11 -22 -21 -14 -49 12 -19 17 -26 34 -26 60 0 37 7 43
30 23 8 -7 6 -3 -4 10 -25 29 -14 39 21 18 l28 -17 -23 20 c-34 30 -18 46 21
20 l32 -21 -24 22 c-20 17 -22 23 -11 30 10 6 21 3 35 -8 19 -16 19 -16 6 1z"/>
</g>
</svg>
